<svg width="64" height="61" viewBox="0 0 64 61" fill="none" xmlns="http://www.w3.org/2000/svg">
<path d="M26.6689 30.3835L17.683 22.7411C16.5058 21.74 15.9172 21.2394 16.0225 20.6705C16.1278 20.1016 16.8566 19.8448 18.3141 19.3313L48.308 8.76333L48.308 8.76333C49.2556 8.42946 49.7294 8.26253 49.8819 8.47922C50.0345 8.6959 49.7176 9.08566 49.0837 9.86517L37.2757 24.387C36.6927 25.1039 36.4013 25.4623 36.4386 25.8684C36.4759 26.2744 36.8279 26.5737 37.5317 27.1723L46.5176 34.8147C47.6947 35.8158 48.2833 36.3164 48.178 36.8853C48.0727 37.4542 47.344 37.711 45.8865 38.2245L15.8926 48.7924C14.945 49.1263 14.4712 49.2933 14.3186 49.0766C14.1661 48.8599 14.483 48.4701 15.1168 47.6906L26.9249 33.1687C27.5078 32.4519 27.7992 32.0934 27.7619 31.6874C27.7246 31.2813 27.3727 30.982 26.6689 30.3835Z" fill="#8CFF56" stroke="#222222"/>
<path d="M62.888 20.3593L55.5096 22.689L60.606 26.2911L53.2276 28.6209" stroke="#2A4157" stroke-opacity="0.24" stroke-linecap="round" stroke-linejoin="round"/>
<path d="M10.9729 28.9349L3.59449 31.2647L8.69092 34.8667L1.31252 37.1965" stroke="#2A4157" stroke-opacity="0.24" stroke-linecap="round" stroke-linejoin="round"/>
</svg>
