<svg width="30" height="30" viewBox="0 0 30 30" fill="none" xmlns="http://www.w3.org/2000/svg">
<path d="M1.66666 10L15 2L28.3333 10L15 18L1.66666 10Z" stroke="#33363F" stroke-width="2" stroke-linecap="round" stroke-linejoin="round"/>
<path d="M28.3333 10V18" stroke="#33363F" stroke-width="2" stroke-linecap="round" stroke-linejoin="round"/>
<path d="M7.66666 14C7.66666 13.4477 7.21894 13 6.66666 13C6.11437 13 5.66666 13.4477 5.66666 14H7.66666ZM6.66666 24H5.66666C5.66666 24.0624 5.6725 24.1247 5.68412 24.1861L6.66666 24ZM23.3333 24L24.3159 24.1861C24.3275 24.1247 24.3333 24.0624 24.3333 24H23.3333ZM24.3333 14C24.3333 13.4477 23.8856 13 23.3333 13C22.781 13 22.3333 13.4477 22.3333 14H24.3333ZM5.66666 14V24H7.66666V14H5.66666ZM6.66666 24C5.68412 24.1861 5.68429 24.187 5.68447 24.1879C5.68453 24.1882 5.68471 24.1891 5.68483 24.1898C5.68508 24.1911 5.68535 24.1924 5.68563 24.1939C5.68619 24.1967 5.68681 24.1998 5.6875 24.2032C5.68887 24.2099 5.6905 24.2176 5.6924 24.2263C5.69622 24.2436 5.70117 24.2649 5.70745 24.2898C5.72001 24.3395 5.73793 24.4038 5.76288 24.4807C5.81275 24.6343 5.89091 24.8385 6.01078 25.0758C6.25134 25.5521 6.65785 26.1577 7.33179 26.7507C8.69322 27.9488 11.0322 29 15 29V27C11.392 27 9.56434 26.0512 8.65304 25.2493C8.19061 24.8423 7.93424 24.4479 7.79602 24.1742C7.72649 24.0365 7.68628 23.9282 7.66513 23.8631C7.65457 23.8305 7.64882 23.8089 7.64658 23.8001C7.64546 23.7957 7.64523 23.7944 7.64572 23.7967C7.64596 23.7978 7.64639 23.7998 7.64697 23.8026C7.64727 23.804 7.6476 23.8057 7.64797 23.8076C7.64815 23.8085 7.64835 23.8095 7.64855 23.8106C7.64865 23.8111 7.64881 23.8119 7.64886 23.8122C7.64903 23.8131 7.64919 23.8139 6.66666 24ZM15 29C18.9678 29 21.3068 27.9488 22.6682 26.7507C23.3421 26.1577 23.7486 25.5521 23.9892 25.0758C24.1091 24.8385 24.1872 24.6343 24.2371 24.4807C24.262 24.4038 24.28 24.3395 24.2925 24.2898C24.2988 24.2649 24.3038 24.2436 24.3076 24.2263C24.3095 24.2176 24.3111 24.2099 24.3125 24.2032C24.3132 24.1998 24.3138 24.1967 24.3144 24.1939C24.3146 24.1924 24.3149 24.1911 24.3151 24.1898C24.3153 24.1891 24.3155 24.1882 24.3155 24.1879C24.3157 24.187 24.3159 24.1861 23.3333 24C22.3508 23.8139 22.351 23.8131 22.3511 23.8122C22.3512 23.8119 22.3513 23.8111 22.3514 23.8106C22.3516 23.8095 22.3518 23.8085 22.352 23.8076C22.3524 23.8057 22.3527 23.804 22.353 23.8026C22.3536 23.7998 22.354 23.7978 22.3543 23.7967C22.3548 23.7944 22.3545 23.7957 22.3534 23.8001C22.3512 23.8089 22.3454 23.8305 22.3348 23.8631C22.3137 23.9282 22.2735 24.0365 22.204 24.1742C22.0657 24.4479 21.8094 24.8423 21.3469 25.2493C20.4356 26.0512 18.608 27 15 27V29ZM24.3333 24V14H22.3333V24H24.3333Z" fill="#33363F"/>
</svg>
