<svg width="77" height="77" viewBox="0 0 77 77" fill="none" xmlns="http://www.w3.org/2000/svg">
<path d="M57.75 9.62503L61.375 9.62502C64.2034 9.62502 65.6176 9.62502 66.4963 10.5037C67.375 11.3824 67.375 12.7966 67.375 15.625L67.375 27.875C67.375 28.3464 67.375 28.5821 67.2286 28.7286C67.0821 28.875 66.8464 28.875 66.375 28.875L48.125 28.875M57.75 9.62503L54.125 9.62502C51.2966 9.62502 49.8824 9.62502 49.0037 10.5037C48.125 11.3824 48.125 12.7966 48.125 15.625L48.125 28.875M57.75 9.62503L13.625 9.62502C11.7394 9.62502 10.7966 9.62502 10.2108 10.2108C9.625 10.7966 9.625 11.7394 9.625 13.625L9.625 67.375L19.25 64.1667L28.875 67.375L38.5 64.1667L48.125 67.375L48.125 28.875" stroke="#33363F" stroke-width="2"/>
<path d="M22.4583 22.4583L35.2916 22.4583" stroke="#33363F" stroke-width="2" stroke-linecap="round"/>
<path d="M25.6667 35.2917H22.4584" stroke="#33363F" stroke-width="2" stroke-linecap="round"/>
<path d="M22.4583 48.125L32.0833 48.125" stroke="#33363F" stroke-width="2" stroke-linecap="round"/>
</svg>
