<svg width="24" height="24" viewBox="0 0 24 24" fill="none" xmlns="http://www.w3.org/2000/svg">
<path d="M9.6797 5.28447C10.663 2.83322 11.1546 1.6076 12 1.6076C12.8454 1.6076 13.337 2.83322 14.3203 5.28447L14.3661 5.39862C14.9216 6.78345 15.1993 7.47587 15.7654 7.89673C16.3314 8.31759 17.0745 8.38414 18.5606 8.51723L18.8293 8.54129C21.2616 8.75912 22.4777 8.86804 22.7379 9.64177C22.9982 10.4155 22.095 11.2372 20.2887 12.8805L19.6859 13.429C18.7715 14.2609 18.3143 14.6768 18.1012 15.222C18.0614 15.3237 18.0284 15.4279 18.0023 15.5339C17.8622 16.1022 17.9961 16.7056 18.2638 17.9125L18.3472 18.2881C18.8393 20.5061 19.0853 21.615 18.6557 22.0933C18.4952 22.2721 18.2866 22.4008 18.0548 22.464C17.4345 22.6333 16.5539 21.9157 14.7928 20.4806C13.6363 19.5382 13.0581 19.0671 12.3942 18.9611C12.133 18.9194 11.8669 18.9194 11.6058 18.9611C10.9419 19.0671 10.3637 19.5382 9.20724 20.4806C7.44605 21.9157 6.56545 22.6333 5.9452 22.464C5.71343 22.4008 5.50479 22.2721 5.34426 22.0933C4.91466 21.615 5.16071 20.5061 5.6528 18.2881L5.73615 17.9125C6.00391 16.7056 6.13779 16.1022 5.99772 15.5339C5.97159 15.4279 5.93855 15.3237 5.8988 15.222C5.6857 14.6768 5.22851 14.2609 4.31413 13.429L3.71128 12.8805C1.90497 11.2372 1.00182 10.4155 1.26204 9.64177C1.52227 8.86804 2.7384 8.75912 5.17067 8.54129L5.43934 8.51723C6.92548 8.38414 7.66856 8.31759 8.23462 7.89673C8.80068 7.47587 9.07843 6.78345 9.63392 5.39861L9.6797 5.28447Z" stroke="#33363F" stroke-width="2"/>
</svg>
